<svg xmlns="http://www.w3.org/2000/svg" viewBox="0 0 509.09 413.49"><defs><style>.cls-1,.cls-2,.cls-5,.cls-6{fill:#231f20;}.cls-2,.cls-3,.cls-4,.cls-5,.cls-6{stroke:#231f20;stroke-miterlimit:10;}.cls-2{stroke-width:3px;}.cls-3,.cls-4{fill:none;}.cls-3{stroke-width:4px;}.cls-4{stroke-width:5px;}.cls-6{stroke-width:2px;}</style></defs><g id="Software_Developer" data-name="Software Developer"><text x="-57.8" y="-78.06"/><path class="cls-1" d="M139.93,453.71l1-1.16a5.52,5.52,0,0,0,3.84,1.62c1.8,0,2.84-.86,2.84-2.06,0-1.4-1-1.8-2.34-2.36l-1.9-.84c-1.3-.52-2.82-1.44-2.82-3.38s1.8-3.49,4.3-3.49a5.73,5.73,0,0,1,4,1.63l-.88,1.08a4.61,4.61,0,0,0-3.22-1.22c-1.52,0-2.54.72-2.54,1.9s1.22,1.72,2.34,2.16l1.84.82c1.62.64,2.89,1.56,2.89,3.5s-1.75,3.74-4.63,3.74A6.67,6.67,0,0,1,139.93,453.71Z" transform="translate(-57.8 -78.06)"/><path class="cls-1" d="M159.54,448.79c0-4.24,2.07-6.75,5-6.75s5,2.51,5,6.75-2.08,6.86-5,6.86S159.54,453.09,159.54,448.79Zm8.33,0c0-3.3-1.32-5.26-3.3-5.26s-3.3,2-3.3,5.26,1.32,5.38,3.3,5.38S167.87,452.15,167.87,448.79Z" transform="translate(-57.8 -78.06)"/><path class="cls-1" d="M181.22,442.29h8.05v1.42H182.9v4.42h5.4v1.42h-5.4v5.86h-1.68Z" transform="translate(-57.8 -78.06)"/><path class="cls-1" d="M203.7,443.71h-4.34v-1.42h10.36v1.42h-4.34v11.7H203.7Z" transform="translate(-57.8 -78.06)"/><path class="cls-1" d="M218.73,442.27h1.88l1,8.24c.12,1.1.2,1.74.26,3h.06c.24-1.3.38-1.94.64-3l1.28-4.88h1.6l1.24,4.88c.28,1.08.4,1.72.64,3h.08c.08-1.3.12-1.94.24-3l.91-8.26h1.8l-1.92,13.14h-2.07l-1.28-5.28c-.2-.8-.36-1.56-.48-2.36h-.06c-.14.8-.26,1.56-.46,2.36l-1.28,5.28h-2Z" transform="translate(-57.8 -78.06)"/><path class="cls-1" d="M243.55,442.29h1.92l4.42,13.12h-1.8l-2.26-7.32c-.46-1.46-.9-2.9-1.3-4.42h-.08c-.42,1.52-.84,3-1.3,4.42l-2.3,7.32h-1.71Zm-2.08,7.78h6v1.36h-6Z" transform="translate(-57.8 -78.06)"/><path class="cls-1" d="M260.48,442.29h4.1c2.66,0,4.59,1,4.59,3.7s-1.93,3.88-4.59,3.88h-2.4v5.54h-1.7Zm3.86,6.22c2,0,3.16-.84,3.16-2.52s-1.12-2.34-3.16-2.34h-2.16v4.86Zm1.22,0,4,6.88h-1.89l-3.42-6Z" transform="translate(-57.8 -78.06)"/><path class="cls-1" d="M280.76,442.29h8.12v1.42h-6.44v4.1h5.44v1.42h-5.44V454h6.64v1.42h-8.32Z" transform="translate(-57.8 -78.06)"/><path class="cls-1" d="M320.19,442.29h3.24c3.94,0,6.08,2.34,6.08,6.5s-2.14,6.62-6,6.62h-3.32ZM323.31,454c3,0,4.46-1.92,4.46-5.24s-1.48-5.12-4.46-5.12h-1.44V454Z" transform="translate(-57.8 -78.06)"/><path class="cls-1" d="M340.72,442.29h8.11v1.42H342.4v4.1h5.43v1.42H342.4V454H349v1.42h-8.31Z" transform="translate(-57.8 -78.06)"/><path class="cls-1" d="M359.26,442.29h1.8l2.1,7.08c.46,1.54.78,2.8,1.26,4.32h.08c.48-1.52.82-2.78,1.26-4.32l2.1-7.08h1.72l-4.16,13.12h-2Z" transform="translate(-57.8 -78.06)"/><path class="cls-1" d="M380.69,442.29h8.11v1.42h-6.43v4.1h5.43v1.42h-5.43V454H389v1.42h-8.31Z" transform="translate(-57.8 -78.06)"/><path class="cls-1" d="M401.07,442.29h1.66V454h6.48v1.42h-8.14Z" transform="translate(-57.8 -78.06)"/><path class="cls-1" d="M419.34,448.79c0-4.24,2.08-6.75,5-6.75s5,2.51,5,6.75-2.08,6.86-5,6.86S419.34,453.09,419.34,448.79Zm8.33,0c0-3.3-1.31-5.26-3.29-5.26s-3.3,2-3.3,5.26,1.32,5.38,3.3,5.38S427.67,452.15,427.67,448.79Z" transform="translate(-57.8 -78.06)"/><path class="cls-1" d="M440.4,442.29h4c2.9,0,4.86,1,4.86,3.86s-2,4.06-4.86,4.06h-2.28v5.2H440.4Zm3.76,6.56c2.28,0,3.38-.84,3.38-2.7s-1.12-2.5-3.38-2.5h-2.08v5.2Z" transform="translate(-57.8 -78.06)"/><path class="cls-1" d="M460.63,442.29h8.11v1.42h-6.43v4.1h5.43v1.42h-5.43V454h6.63v1.42h-8.31Z" transform="translate(-57.8 -78.06)"/><path class="cls-1" d="M480.31,442.29h4.1c2.66,0,4.6,1,4.6,3.7s-1.94,3.88-4.6,3.88H482v5.54h-1.7Zm3.86,6.22c2,0,3.16-.84,3.16-2.52s-1.12-2.34-3.16-2.34H482v4.86Zm1.22,0,4,6.88h-1.9l-3.42-6Z" transform="translate(-57.8 -78.06)"/></g><g id="C"><path class="cls-2" d="M363.55,241.41c6.95-23.35,23.6-36.74,44.52-36.74,14.12,0,24.64,5.38,34,14l24.36-27.37c-13.22-13-33.55-24.87-58.33-24.87-44.54,0-80.86,27.2-90.73,75.19C332.74,241.6,348.14,241.46,363.55,241.41Z" transform="translate(-57.8 -78.06)"/><path class="cls-2" d="M445,313.66c-9.48,10.34-21.12,17.27-35.22,17.27-23,0-40.4-14.19-46.94-39.52-15.46,0-30.91.19-46.37.23,8.55,51.06,46.09,77.51,88.74,77.51,26.32,0,48.2-9.85,64.15-28.71Z" transform="translate(-57.8 -78.06)"/><path class="cls-3" d="M502.33,449.41" transform="translate(-57.8 -78.06)"/><path class="cls-3" d="M507.6,449.41" transform="translate(-57.8 -78.06)"/><polyline class="cls-4" points="58.35 371.35 2.5 371.35 2.5 2.5 506.59 2.5 506.59 371.35 456.13 371.35"/></g><g id="mily_costa" data-name="mily costa"><path class="cls-1" d="M292.82,258.44h11.27v3.09h-7.42v3.26H303v3.1h-6.31v3.74h7.69v3.1H292.82Z" transform="translate(-57.8 -78.06)"/><path class="cls-1" d="M308.88,258.44h4l1.67,5.77.57,2.25h.1l.57-2.25,1.67-5.77h4v16.29h-3.26v-5.05c0-1.83.34-5.8.52-7.56h-.08l-1.3,4.37-1.33,3.92h-1.87l-1.34-3.92-1.22-4.37h-.09c.2,1.76.52,5.73.52,7.56v5.05h-3.2Z" transform="translate(-57.8 -78.06)"/><path class="cls-1" d="M326.27,271.63h4v-10.1h-4v-3.09h11.79v3.09h-4v10.1h4v3.1H326.27Z" transform="translate(-57.8 -78.06)"/><path class="cls-1" d="M344.07,258.44h3.85v13.19h7.56v3.1H344.07Z" transform="translate(-57.8 -78.06)"/><path class="cls-1" d="M364.16,269.22l-5.48-10.78h4.11l1.73,3.91c.5,1.26,1,2.43,1.54,3.73h.11c.52-1.3,1.07-2.47,1.59-3.73l1.71-3.91h4L368,269.22v5.51h-3.84Z" transform="translate(-57.8 -78.06)"/><path class="cls-1" d="M393.59,266.67c0-5.4,3.56-8.53,8.12-8.53a7.41,7.41,0,0,1,5.07,2.07l-2.12,2.28a4.22,4.22,0,0,0-3-1.17c-2.42,0-4.18,2-4.18,5.23s1.76,5.29,4.33,5.29a4.18,4.18,0,0,0,3.06-1.44l2.12,2.23a7.16,7.16,0,0,1-5.58,2.4C397.24,275,393.59,272.17,393.59,266.67Z" transform="translate(-57.8 -78.06)"/><path class="cls-1" d="M410.12,266.51c0-5.45,2.79-8.37,6.84-8.37s6.84,2.92,6.84,8.37S421,275,417,275,410.12,272.08,410.12,266.51Zm9.73,0c0-3.39-1.12-5.19-2.89-5.19s-2.89,1.8-2.89,5.19,1.12,5.33,2.89,5.33S419.85,270,419.85,266.51Z" transform="translate(-57.8 -78.06)"/><path class="cls-1" d="M427.41,272.67l2.21-2.53a7.43,7.43,0,0,0,4.52,1.7c1.63,0,2.38-.6,2.38-1.4,0-1.17-1-1.46-2.62-2.1l-2.21-.91c-1.89-.68-3.61-2.07-3.61-4.44,0-2.7,2.54-4.85,6.24-4.85a8.41,8.41,0,0,1,5.64,2.13L438,262.59a6.26,6.26,0,0,0-3.91-1.27c-1.27,0-2.13.5-2.13,1.46s1.14,1.33,2.77,1.92l2.08.84c2.23.8,3.63,2.13,3.63,4.43,0,2.71-2.37,5.06-6.58,5.06A10,10,0,0,1,427.41,272.67Z" transform="translate(-57.8 -78.06)"/><path class="cls-1" d="M449,261.53h-5.1v-3.09h14v3.09h-5.1v13.2H449Z" transform="translate(-57.8 -78.06)"/><path class="cls-1" d="M465.53,258.44h4.62l5.29,16.29h-4.08l-2.19-8.25c-.43-1.63-.95-3.53-1.36-5.25h-.1c-.42,1.72-.89,3.62-1.32,5.25l-2.21,8.25h-3.94ZM463.74,268h8.14v2.87h-8.14Z" transform="translate(-57.8 -78.06)"/></g><g id="Layer_3" data-name="Layer 3"><circle class="cls-5" cx="95.83" cy="91.89" r="3.5"/><circle class="cls-5" cx="95.83" cy="125.46" r="3.5"/><circle class="cls-5" cx="95.83" cy="136.84" r="3.5"/><path class="cls-5" d="M192.93,368.45a3.5,3.5,0,0,1-3.5,3.5,3.67,3.67,0,0,1-1.89-.55,3.52,3.52,0,0,1-1.61-2.95,3.6,3.6,0,0,1,3.5-3.5A3.5,3.5,0,0,1,192.93,368.45Z" transform="translate(-57.8 -78.06)"/><path class="cls-5" d="M189.43,368.45" transform="translate(-57.8 -78.06)"/><path class="cls-2" d="M153.07,203.13" transform="translate(-57.8 -78.06)"/><line class="cls-6" x1="95.83" y1="92.04" x2="95.83" y2="125.22"/><line class="cls-6" x1="95.83" y1="136.84" x2="95.83" y2="290.39"/><line class="cls-6" x1="132.17" y1="290.24" x2="94.83" y2="290.24"/><circle class="cls-5" cx="229.11" cy="110.94" r="3.5"/><circle class="cls-5" cx="106.71" cy="91.89" r="3.5"/><circle class="cls-5" cx="144.23" cy="131.77" r="3.5"/><circle class="cls-5" cx="216.59" cy="167.55" r="3.5"/><circle class="cls-5" cx="143.96" cy="237.43" r="3.5"/><circle class="cls-5" cx="232.71" cy="290.39" r="3.5"/><line class="cls-6" x1="106.78" y1="91.89" x2="230.11" y2="91.89"/><line class="cls-6" x1="229.11" y1="110.94" x2="229.11" y2="91.89"/><line class="cls-6" x1="144.23" y1="131.77" x2="228.91" y2="131.77"/><line class="cls-6" x1="229.11" y1="121.27" x2="229.11" y2="132.76"/><circle class="cls-5" cx="229.11" cy="123.25" r="3.5"/><circle class="cls-5" cx="143.96" cy="143.69" r="3.5"/><line class="cls-6" x1="143.96" y1="143.69" x2="144.09" y2="168.64"/><line class="cls-6" x1="216.59" y1="167.55" x2="143.96" y2="167.62"/><ellipse class="cls-5" cx="216.59" cy="178.55" rx="3.5" ry="3.8"/><circle class="cls-5" cx="144.02" cy="249.4" r="3.5"/><circle class="cls-5" cx="141.91" cy="290.39" r="3.5"/><circle class="cls-5" cx="222.42" cy="290.39" r="3.5"/><line class="cls-6" x1="216.59" y1="178.55" x2="216.59" y2="210.1"/><line class="cls-6" x1="143.96" y1="238.01" x2="144.03" y2="208.23"/><line class="cls-6" x1="216.59" y1="209.07" x2="144.02" y2="209.22"/><line class="cls-6" x1="144.02" y1="249.4" x2="232.71" y2="249.4"/><line class="cls-6" x1="232.71" y1="289.41" x2="232.71" y2="248.42"/><line class="cls-6" x1="141.91" y1="290.39" x2="222.42" y2="290.39"/><circle class="cls-5" cx="109.95" cy="171.05" r="3.5"/><circle class="cls-5" cx="188.36" cy="276.51" r="3.5"/><line class="cls-6" x1="109.95" y1="171.05" x2="109.95" y2="277.52"/><line class="cls-6" x1="188.36" y1="276.51" x2="108.95" y2="276.51"/><circle class="cls-5" cx="109.95" cy="159.66" r="3.5"/><circle class="cls-5" cx="124.63" cy="105.13" r="3.5"/><line class="cls-6" x1="110.21" y1="159.66" x2="110.21" y2="104.39"/><circle class="cls-5" cx="135.74" cy="105.13" r="3.5"/><circle class="cls-5" cx="189.72" cy="118.45" r="3.5"/><circle class="cls-5" cx="178.66" cy="118.45" r="3.5"/><line class="cls-6" x1="135.74" y1="105.13" x2="216.59" y2="105.13"/><line class="cls-6" x1="216.59" y1="119.43" x2="216.59" y2="104.13"/><line class="cls-6" x1="189.72" y1="118.45" x2="217.6" y2="118.45"/><circle class="cls-5" cx="148.67" cy="181.64" r="3.5"/><line class="cls-6" x1="178.66" y1="118.45" x2="127.12" y2="118.45"/><line class="cls-6" x1="126.34" y1="105.13" x2="109.2" y2="105.13"/><line class="cls-6" x1="127.12" y1="126.9" x2="127.12" y2="150.61"/><line class="cls-6" x1="147.73" y1="181.64" x2="126.12" y2="181.64"/><circle class="cls-5" cx="160.1" cy="181.64" r="3.5"/><line class="cls-6" x1="160.1" y1="181.64" x2="201.51" y2="181.64"/><line class="cls-6" x1="127.12" y1="195.67" x2="201.51" y2="195.67"/><line class="cls-6" x1="201.51" y1="180.64" x2="201.51" y2="196.67"/><circle class="cls-5" cx="153.46" cy="262.29" r="3.77"/><path class="cls-5" d="M200,340.33c.07,4.9-7.62,4.9-7.55,0S200.05,335.44,200,340.33Z" transform="translate(-57.8 -78.06)"/><circle class="cls-5" cx="126.96" cy="262.27" r="3.77"/><circle class="cls-5" cx="127.12" cy="207.16" r="3.77"/><circle class="cls-5" cx="127.52" cy="195.94" r="3.77"/><line class="cls-6" x1="127.12" y1="207.16" x2="127.12" y2="262.27"/><line class="cls-6" x1="138.41" y1="262.27" x2="153.96" y2="262.29"/><path class="cls-5" d="M260.81,354.57A3.78,3.78,0,1,1,257,350.8,3.77,3.77,0,0,1,260.81,354.57Z" transform="translate(-57.8 -78.06)"/><circle class="cls-5" cx="164.88" cy="262.27" r="3.77"/><line class="cls-6" x1="164.88" y1="262.27" x2="216.45" y2="262.27"/><line class="cls-6" x1="215.45" y1="262.29" x2="215.45" y2="277.51"/><circle class="cls-5" cx="126.91" cy="118.45" r="3.5"/><circle class="cls-5" cx="126.91" cy="128.96" r="3.5"/><circle class="cls-5" cx="127.12" cy="150.61" r="3.5"/><circle class="cls-5" cx="126.91" cy="160.64" r="3.5"/><line class="cls-6" x1="126.91" y1="182.64" x2="126.91" y2="160.64"/><line class="cls-6" x1="198.71" y1="276.51" x2="215.45" y2="276.51"/><circle class="cls-5" cx="59.43" cy="371.35" r="7.5"/><path class="cls-5" d="M506.83,449.41a7.5,7.5,0,1,1,7.5,7.5,7.5,7.5,0,0,1-7.5-7.5" transform="translate(-57.8 -78.06)"/></g></svg>