<?xml version="1.0" encoding="utf-8"?>
<!-- Generator: Adobe Illustrator 25.0.1, SVG Export Plug-In . SVG Version: 6.00 Build 0)  -->
<svg version="1.1" id="Layer_1" xmlns="http://www.w3.org/2000/svg" xmlns:xlink="http://www.w3.org/1999/xlink" x="0px" y="0px"
	 viewBox="0 0 513.2 413.5" style="enable-background:new 0 0 513.2 413.5;" xml:space="preserve">
<style type="text/css">
	.st0{fill:#FFFFFF;}
	.st1{fill:#FFFFFF;stroke:#FFFFFF;stroke-width:3;stroke-miterlimit:10;}
	.st2{fill:none;stroke:#231F20;stroke-width:4;stroke-miterlimit:10;}
	.st3{fill:none;stroke:#FFFFFF;stroke-width:5;stroke-miterlimit:10;}
	.st4{fill:#FFFFFF;stroke:#FFFFFF;stroke-miterlimit:10;}
	.st5{fill:none;stroke:#FFFFFF;stroke-width:2;stroke-miterlimit:10;}
</style>
<g id="Software_Developer">
	<path class="st0" d="M82.1,375.6l1-1.2c1,1,2.4,1.6,3.8,1.6c1.8,0,2.8-0.9,2.8-2.1c0-1.4-1-1.8-2.3-2.4l-1.9-0.8
		c-1.3-0.5-2.8-1.4-2.8-3.4s1.8-3.5,4.3-3.5c1.5,0,2.9,0.6,4,1.6l-0.9,1.1c-0.9-0.8-2-1.2-3.2-1.2c-1.5,0-2.5,0.7-2.5,1.9
		s1.2,1.7,2.3,2.2l1.8,0.8c1.6,0.6,2.9,1.6,2.9,3.5s-1.8,3.7-4.6,3.7C85.1,377.6,83.4,376.9,82.1,375.6z"/>
	<path class="st0" d="M101.7,370.7c0-4.2,2.1-6.8,5-6.8s5,2.5,5,6.8s-2.1,6.9-5,6.9S101.7,375,101.7,370.7z M110.1,370.7
		c0-3.3-1.3-5.3-3.3-5.3s-3.3,2-3.3,5.3s1.3,5.4,3.3,5.4S110.1,374.1,110.1,370.7z"/>
	<path class="st0" d="M123.4,364.2h8.1v1.4h-6.4v4.4h5.4v1.4h-5.4v5.9h-1.7V364.2z"/>
	<path class="st0" d="M145.9,365.6h-4.3v-1.4h10.4v1.4h-4.3v11.7h-1.7V365.6z"/>
	<path class="st0" d="M160.9,364.2h1.9l1,8.2c0.1,1.1,0.2,1.7,0.3,3h0.1c0.2-1.3,0.4-1.9,0.6-3l1.3-4.9h1.6l1.2,4.9
		c0.3,1.1,0.4,1.7,0.6,3h0.1c0.1-1.3,0.1-1.9,0.2-3l0.9-8.3h1.8l-1.9,13.1h-2.1l-1.3-5.3c-0.2-0.8-0.4-1.6-0.5-2.4h-0.1
		c-0.1,0.8-0.3,1.6-0.5,2.4l-1.3,5.3h-2L160.9,364.2z"/>
	<path class="st0" d="M185.8,364.2h1.9l4.4,13.1h-1.8L188,370c-0.5-1.5-0.9-2.9-1.3-4.4h-0.1c-0.4,1.5-0.8,3-1.3,4.4l-2.3,7.3h-1.7
		L185.8,364.2z M183.7,372h6v1.4h-6V372z"/>
	<path class="st0" d="M202.7,364.2h4.1c2.7,0,4.6,1,4.6,3.7s-1.9,3.9-4.6,3.9h-2.4v5.5h-1.7V364.2z M206.5,370.5
		c2,0,3.2-0.8,3.2-2.5s-1.1-2.3-3.2-2.3h-2.2v4.9H206.5z M207.8,370.5l4,6.9h-1.9l-3.4-6L207.8,370.5z"/>
	<path class="st0" d="M223,364.2h8.1v1.4h-6.4v4.1h5.4v1.4h-5.4v4.8h6.6v1.4H223V364.2z"/>
	<path class="st0" d="M262.4,364.2h3.2c3.9,0,6.1,2.3,6.1,6.5s-2.1,6.6-6,6.6h-3.3V364.2z M265.5,375.9c3,0,4.5-1.9,4.5-5.2
		s-1.5-5.1-4.5-5.1h-1.4v10.4H265.5z"/>
	<path class="st0" d="M282.9,364.2h8.1v1.4h-6.4v4.1h5.4v1.4h-5.4v4.8h6.6v1.4h-8.3L282.9,364.2z"/>
	<path class="st0" d="M301.5,364.2h1.8l2.1,7.1c0.5,1.5,0.8,2.8,1.3,4.3h0.1c0.5-1.5,0.8-2.8,1.3-4.3l2.1-7.1h1.7l-4.2,13.1h-2
		L301.5,364.2z"/>
	<path class="st0" d="M322.9,364.2h8.1v1.4h-6.4v4.1h5.4v1.4h-5.4v4.8h6.6v1.4h-8.3V364.2z"/>
	<path class="st0" d="M343.3,364.2h1.6v11.7h6.5v1.4h-8.1V364.2z"/>
	<path class="st0" d="M361.5,370.7c0-4.2,2.1-6.8,5-6.8s5,2.5,5,6.8s-2.1,6.9-5,6.9S361.5,375,361.5,370.7z M369.9,370.7
		c0-3.3-1.3-5.3-3.3-5.3s-3.3,2-3.3,5.3s1.3,5.4,3.3,5.4S369.9,374.1,369.9,370.7z"/>
	<path class="st0" d="M382.6,364.2h4c2.9,0,4.9,1,4.9,3.9s-2,4.1-4.9,4.1h-2.3v5.2h-1.7V364.2z M386.4,370.8c2.3,0,3.4-0.8,3.4-2.7
		s-1.1-2.5-3.4-2.5h-2.1v5.2H386.4z"/>
	<path class="st0" d="M402.8,364.2h8.1v1.4h-6.4v4.1h5.4v1.4h-5.4v4.8h6.7v1.4h-8.3L402.8,364.2z"/>
	<path class="st0" d="M422.5,364.2h4.1c2.7,0,4.6,1,4.6,3.7s-1.9,3.9-4.6,3.9h-2.4v5.5h-1.7L422.5,364.2z M426.4,370.5
		c2,0,3.2-0.8,3.2-2.5s-1.1-2.3-3.2-2.3h-2.2v4.9H426.4z M427.6,370.5l4,6.9h-1.9l-3.4-6L427.6,370.5z"/>
</g>
<g id="C">
	<path class="st1" d="M305.8,163.4c7-23.4,23.6-36.7,44.5-36.7c14.1,0,24.6,5.4,34,14l24.4-27.4c-13.2-13-33.5-24.9-58.3-24.9
		c-44.5,0-80.9,27.2-90.7,75.2C274.9,163.5,290.3,163.4,305.8,163.4z"/>
	<path class="st1" d="M387.2,235.6c-9.5,10.3-21.1,17.3-35.2,17.3c-23,0-40.4-14.2-46.9-39.5c-15.5,0-30.9,0.2-46.4,0.2
		c8.5,51.1,46.1,77.5,88.7,77.5c26.3,0,48.2-9.9,64.1-28.7L387.2,235.6z"/>
	<path class="st2" d="M444.5,371.4"/>
	<path class="st2" d="M449.8,371.4"/>
	<polyline class="st3" points="58.8,371.4 2.5,371.4 2.5,2.5 510.7,2.5 510.7,371.4 459.8,371.4 	"/>
</g>
<g id="mily_costa">
	<path class="st0" d="M235,180.4h11.3v3.1h-7.4v3.3h6.3v3.1h-6.3v3.7h7.7v3.1H235V180.4z"/>
	<path class="st0" d="M251.1,180.4h4l1.7,5.8l0.6,2.2h0.1l0.6-2.2l1.7-5.8h4v16.3h-3.3v-5c0-1.8,0.3-5.8,0.5-7.6h-0.1l-1.3,4.4
		l-1.3,3.9h-1.9l-1.3-3.9l-1.2-4.4h-0.1c0.2,1.8,0.5,5.7,0.5,7.6v5H251L251.1,180.4z"/>
	<path class="st0" d="M268.5,193.6h4v-10.1h-4v-3.1h11.8v3.1h-4v10.1h4v3.1h-11.8V193.6z"/>
	<path class="st0" d="M286.3,180.4h3.9v13.2h7.6v3.1h-11.4V180.4z"/>
	<path class="st0" d="M306.4,191.2l-5.5-10.8h4.1l1.7,3.9c0.5,1.3,1,2.4,1.5,3.7h0.1c0.5-1.3,1.1-2.5,1.6-3.7l1.7-3.9h4l-5.5,10.8
		v5.5h-3.8V191.2z"/>
	<path class="st0" d="M335.8,188.6c0-5.4,3.6-8.5,8.1-8.5c1.9,0,3.7,0.8,5.1,2.1l-2.1,2.3c-0.8-0.8-1.9-1.2-3-1.2
		c-2.4,0-4.2,2-4.2,5.2s1.8,5.3,4.3,5.3c1.2,0,2.3-0.6,3.1-1.4l2.1,2.2c-1.4,1.6-3.5,2.5-5.6,2.4
		C339.4,196.9,335.8,194.1,335.8,188.6z"/>
	<path class="st0" d="M352.3,188.5c0-5.5,2.8-8.4,6.8-8.4s6.8,2.9,6.8,8.4s-2.8,8.5-6.8,8.5S352.3,194,352.3,188.5z M362.1,188.5
		c0-3.4-1.1-5.2-2.9-5.2s-2.9,1.8-2.9,5.2s1.1,5.3,2.9,5.3S362.1,191.9,362.1,188.5z"/>
	<path class="st0" d="M369.6,194.6l2.2-2.5c1.3,1.1,2.9,1.7,4.5,1.7c1.6,0,2.4-0.6,2.4-1.4c0-1.2-1-1.5-2.6-2.1l-2.2-0.9
		c-1.9-0.7-3.6-2.1-3.6-4.4c0-2.7,2.5-4.9,6.2-4.9c2.1,0,4.1,0.7,5.6,2.1l-2,2.3c-1.1-0.9-2.5-1.3-3.9-1.3c-1.3,0-2.1,0.5-2.1,1.5
		s1.1,1.3,2.8,1.9l2.1,0.8c2.2,0.8,3.6,2.1,3.6,4.4c0,2.7-2.4,5.1-6.6,5.1C373.7,197,371.4,196.1,369.6,194.6z"/>
	<path class="st0" d="M391.2,183.5h-5.1v-3.1h14v3.1H395v13.2h-3.8V183.5z"/>
	<path class="st0" d="M407.7,180.4h4.6l5.3,16.3h-4.1l-2.2-8.2c-0.4-1.6-1-3.5-1.4-5.2h-0.1c-0.4,1.7-0.9,3.6-1.3,5.2l-2.2,8.2h-3.9
		L407.7,180.4z M405.9,189.9h8.1v2.9h-8.1V189.9z"/>
</g>
<g id="Layer_3">
	<circle class="st4" cx="95.8" cy="91.9" r="3.5"/>
	<circle class="st4" cx="95.8" cy="125.5" r="3.5"/>
	<circle class="st4" cx="95.8" cy="136.8" r="3.5"/>
	<path class="st4" d="M135.1,290.4c0,1.9-1.6,3.5-3.5,3.5c-0.7,0-1.3-0.2-1.9-0.5c-1-0.6-1.6-1.8-1.6-3c0.1-1.9,1.6-3.4,3.5-3.5
		C133.6,286.9,135.1,288.5,135.1,290.4z"/>
	<path class="st4" d="M131.6,290.4"/>
	<path class="st1" d="M95.3,125.1"/>
	<line class="st5" x1="95.8" y1="92" x2="95.8" y2="125.2"/>
	<line class="st5" x1="95.8" y1="136.8" x2="95.8" y2="290.4"/>
	<line class="st5" x1="132.2" y1="290.2" x2="94.8" y2="290.2"/>
	<circle class="st4" cx="229.1" cy="110.9" r="3.5"/>
	<circle class="st4" cx="106.7" cy="91.9" r="3.5"/>
	<circle class="st4" cx="144.2" cy="131.8" r="3.5"/>
	<circle class="st4" cx="216.6" cy="167.6" r="3.5"/>
	<circle class="st4" cx="144" cy="237.4" r="3.5"/>
	<circle class="st4" cx="232.7" cy="290.4" r="3.5"/>
	<line class="st5" x1="106.8" y1="91.9" x2="230.1" y2="91.9"/>
	<line class="st5" x1="229.1" y1="110.9" x2="229.1" y2="91.9"/>
	<line class="st5" x1="144.2" y1="131.8" x2="228.9" y2="131.8"/>
	<line class="st5" x1="229.1" y1="121.3" x2="229.1" y2="132.8"/>
	<circle class="st4" cx="229.1" cy="123.2" r="3.5"/>
	<circle class="st4" cx="144" cy="143.7" r="3.5"/>
	<line class="st5" x1="144" y1="143.7" x2="144.1" y2="168.6"/>
	<line class="st5" x1="216.6" y1="167.6" x2="144" y2="167.6"/>
	<ellipse class="st4" cx="216.6" cy="178.6" rx="3.5" ry="3.8"/>
	<circle class="st4" cx="144" cy="249.4" r="3.5"/>
	<circle class="st4" cx="141.9" cy="290.4" r="3.5"/>
	<circle class="st4" cx="222.4" cy="290.4" r="3.5"/>
	<line class="st5" x1="216.6" y1="178.6" x2="216.6" y2="210.1"/>
	<line class="st5" x1="144" y1="238" x2="144" y2="208.2"/>
	<line class="st5" x1="216.6" y1="209.1" x2="144" y2="209.2"/>
	<line class="st5" x1="144" y1="249.4" x2="232.7" y2="249.4"/>
	<line class="st5" x1="232.7" y1="289.4" x2="232.7" y2="248.4"/>
	<line class="st5" x1="141.9" y1="290.4" x2="222.4" y2="290.4"/>
	<circle class="st4" cx="109.9" cy="171.1" r="3.5"/>
	<circle class="st4" cx="188.4" cy="276.5" r="3.5"/>
	<line class="st5" x1="109.9" y1="171.1" x2="109.9" y2="277.5"/>
	<line class="st5" x1="188.4" y1="276.5" x2="108.9" y2="276.5"/>
	<circle class="st4" cx="109.9" cy="159.7" r="3.5"/>
	<circle class="st4" cx="124.6" cy="105.1" r="3.5"/>
	<line class="st5" x1="110.2" y1="159.7" x2="110.2" y2="104.4"/>
	<circle class="st4" cx="135.7" cy="105.1" r="3.5"/>
	<circle class="st4" cx="189.7" cy="118.4" r="3.5"/>
	<circle class="st4" cx="178.7" cy="118.4" r="3.5"/>
	<line class="st5" x1="135.7" y1="105.1" x2="216.6" y2="105.1"/>
	<line class="st5" x1="216.6" y1="119.4" x2="216.6" y2="104.1"/>
	<line class="st5" x1="189.7" y1="118.4" x2="217.6" y2="118.4"/>
	<circle class="st4" cx="148.7" cy="181.6" r="3.5"/>
	<line class="st5" x1="178.7" y1="118.4" x2="127.1" y2="118.4"/>
	<line class="st5" x1="126.3" y1="105.1" x2="109.2" y2="105.1"/>
	<line class="st5" x1="127.1" y1="126.9" x2="127.1" y2="150.6"/>
	<line class="st5" x1="147.7" y1="181.6" x2="126.1" y2="181.6"/>
	<circle class="st4" cx="160.1" cy="181.6" r="3.5"/>
	<line class="st5" x1="160.1" y1="181.6" x2="201.5" y2="181.6"/>
	<line class="st5" x1="127.1" y1="195.7" x2="201.5" y2="195.7"/>
	<line class="st5" x1="201.5" y1="180.6" x2="201.5" y2="196.7"/>
	<circle class="st4" cx="153.5" cy="262.3" r="3.8"/>
	<path class="st4" d="M142.2,262.3c0.1,4.9-7.6,4.9-7.6,0S142.2,257.4,142.2,262.3z"/>
	<circle class="st4" cx="127" cy="262.3" r="3.8"/>
	<circle class="st4" cx="127.1" cy="207.2" r="3.8"/>
	<circle class="st4" cx="127.5" cy="195.9" r="3.8"/>
	<line class="st5" x1="127.1" y1="207.2" x2="127.1" y2="262.3"/>
	<line class="st5" x1="138.4" y1="262.3" x2="154" y2="262.3"/>
	<path class="st4" d="M203,276.5c0,2.1-1.7,3.8-3.8,3.8c-2.1,0-3.8-1.7-3.8-3.8c0-2.1,1.7-3.8,3.7-3.8
		C201.3,272.7,203,274.4,203,276.5C203,276.5,203,276.5,203,276.5z"/>
	<circle class="st4" cx="164.9" cy="262.3" r="3.8"/>
	<line class="st5" x1="164.9" y1="262.3" x2="216.4" y2="262.3"/>
	<line class="st5" x1="215.4" y1="262.3" x2="215.4" y2="277.5"/>
	<circle class="st4" cx="126.9" cy="118.4" r="3.5"/>
	<circle class="st4" cx="126.9" cy="129" r="3.5"/>
	<circle class="st4" cx="127.1" cy="150.6" r="3.5"/>
	<circle class="st4" cx="126.9" cy="160.6" r="3.5"/>
	<line class="st5" x1="126.9" y1="182.6" x2="126.9" y2="160.6"/>
	<line class="st5" x1="198.7" y1="276.5" x2="215.4" y2="276.5"/>
	<circle class="st4" cx="59.4" cy="371.4" r="7.5"/>
	<path class="st4" d="M449,371.4c0-4.1,3.4-7.5,7.5-7.5c4.1,0,7.5,3.4,7.5,7.5s-3.4,7.5-7.5,7.5c0,0,0,0,0,0
		C452.4,378.9,449,375.5,449,371.4"/>
</g>
</svg>
